<svg width="198" height="58" viewBox="0 0 198 58" fill="none" xmlns="http://www.w3.org/2000/svg">
<path d="M26.6433 26.1116C25.9853 27.7169 25.6467 29.4374 25.6467 31.175C25.6467 34.6841 27.0261 38.0496 29.4814 40.5309C31.9367 43.0122 35.2668 44.4062 38.7391 44.4062C42.2114 44.4062 45.5416 43.0122 47.9968 40.5309C50.4521 38.0496 51.8315 34.6841 51.8315 31.175C51.8315 29.4374 51.4929 27.7169 50.8349 26.1116C50.177 24.5063 49.2126 23.0477 47.9968 21.8191C46.7811 20.5904 45.3378 19.6158 43.7494 18.9509C42.1609 18.286 40.4584 17.9437 38.7391 17.9437C37.0198 17.9437 35.3173 18.286 33.7289 18.9509C32.1404 19.6158 30.6972 20.5904 29.4814 21.8191C28.2656 23.0477 27.3012 24.5063 26.6433 26.1116ZM32.2803 38.7112C30.5392 37.1876 29.382 35.098 29.0054 32.8062H34.5537C34.8712 33.6395 35.4257 34.3603 36.1485 34.8772C36.906 35.4189 37.8111 35.7098 38.7391 35.7098C39.6671 35.7098 40.5723 35.4189 41.3298 34.8772C42.0525 34.3603 42.607 33.6395 42.9245 32.8062H48.4728C48.0963 35.098 46.9391 37.1876 45.1979 38.7112C43.4045 40.2805 41.1115 41.1444 38.7391 41.1444C36.3668 41.1444 34.0738 40.2805 32.2803 38.7112ZM45.2007 23.6329C46.9421 25.1583 48.0986 27.2501 48.473 29.5437H42.9245C42.607 28.7105 42.0525 27.9896 41.3298 27.4728C40.5723 26.931 39.6671 26.6402 38.7391 26.6402C37.8111 26.6402 36.906 26.931 36.1485 27.4728C35.4257 27.9896 34.8712 28.7105 34.5537 29.5437H29.0052C29.3797 27.2501 30.5361 25.1583 32.2776 23.6329C34.0713 22.0618 36.3654 21.1969 38.7391 21.1969C41.1128 21.1969 43.407 22.0618 45.2007 23.6329ZM39.6268 32.0721C39.3914 32.31 39.0721 32.4437 38.7391 32.4437C38.4062 32.4437 38.0869 32.31 37.8514 32.0721C37.616 31.8341 37.4837 31.5114 37.4837 31.175C37.4837 30.8385 37.616 30.5158 37.8514 30.2779C38.0869 30.0399 38.4062 29.9062 38.7391 29.9062C39.0721 29.9062 39.3914 30.0399 39.6268 30.2779C39.8623 30.5158 39.9946 30.8385 39.9946 31.175C39.9946 31.5114 39.8623 31.8341 39.6268 32.0721Z" fill="white" stroke="white" stroke-width="0.5"/>
<path d="M78.7717 38.2974C78.7717 40.834 77.9452 42.7054 76.2924 43.9118C74.6704 45.0873 73.0476 45.675 71.4256 45.675H63.7122C62.09 45.675 60.5136 45.0873 58.9832 43.9118C58.2485 43.2932 57.6823 42.5198 57.2844 41.5918C56.8864 40.6329 56.6875 39.5348 56.6875 38.2974V25.0735C56.6875 22.5679 57.4527 20.7119 58.9832 19.5055C59.7484 18.9487 60.5289 18.5156 61.3247 18.2063C62.1512 17.866 62.947 17.6959 63.7122 17.6959H71.4256C72.1602 17.6959 72.9716 17.8505 73.859 18.1599C74.7464 18.4383 75.5728 18.8249 76.3383 19.3199C77.0729 19.8457 77.6547 20.5727 78.083 21.5007C78.5421 22.4286 78.7717 23.5268 78.7717 24.7951V27.1151C78.7717 28.5999 77.9302 29.3423 76.2465 29.3423C74.5627 29.3423 73.7212 28.5999 73.7212 27.1151V25.1199C73.7212 24.3465 73.4766 23.6505 72.9866 23.0318C72.5275 22.3822 71.7317 22.0575 70.5992 22.0575H64.86C63.7275 22.0575 62.9164 22.3822 62.4266 23.0318C61.9675 23.6505 61.7379 24.3465 61.7379 25.1199V38.251C61.7379 38.9934 61.9675 39.6894 62.4266 40.339C62.9164 40.9886 63.7275 41.3134 64.86 41.3134H70.5992C71.7317 41.3134 72.5275 40.9886 72.9866 40.339C73.4766 39.6894 73.7212 38.9934 73.7212 38.251V36.1166C73.7212 34.6628 74.5627 33.9358 76.2465 33.9358C77.9302 33.9358 78.7717 34.6628 78.7717 36.1166V38.2974ZM93.7601 45.675C92.811 45.675 91.9078 45.5513 91.0506 45.3038C90.194 45.0254 89.3675 44.6388 88.5712 44.1438V44.1902C87.0719 43.2313 86.3215 41.4681 86.3215 38.9006V36.627C86.3215 35.3588 86.536 34.2607 86.9643 33.3327C87.4234 32.3737 88.0511 31.6158 88.8467 31.059H88.8008C89.5663 30.5332 90.3776 30.1465 91.2342 29.8991C92.0915 29.6207 92.9179 29.4815 93.7142 29.4815H103.861V25.1663C103.861 24.3929 103.616 23.6969 103.126 23.0783C102.667 22.4287 101.871 22.1039 100.739 22.1039H95.3664C94.2035 22.1039 93.3921 22.3977 92.933 22.9854C92.5047 23.5422 92.2909 24.2073 92.2909 24.9807V25.3519C92.2909 26.9604 91.4336 27.7647 89.7191 27.7647C88.0052 27.7647 87.1479 26.9604 87.1479 25.3519V24.9342C87.1479 23.666 87.3624 22.5988 87.7907 21.7326C88.2499 20.8665 88.8625 20.1396 89.6272 19.5519H89.5821C90.3776 19.026 91.2041 18.5929 92.0606 18.2527C92.9488 17.9124 93.7903 17.7423 94.5859 17.7423H101.565C102.33 17.7423 103.141 17.9124 103.999 18.2527C104.886 18.5929 105.713 19.026 106.478 19.5519H106.432C107.228 20.1396 107.84 20.9129 108.269 21.8719C108.697 22.7999 108.911 23.8825 108.911 25.1199V43.7262C108.911 45.211 108.069 45.9534 106.386 45.9534C106.049 45.9534 105.728 45.938 105.421 45.907C105.146 45.8761 104.886 45.7988 104.642 45.675C104.427 45.5204 104.243 45.3193 104.091 45.0718C103.968 44.7934 103.907 44.4377 103.907 44.0046L103.861 33.8431H94.5859C93.9129 33.8431 93.3921 33.9204 93.0255 34.075C92.6575 34.2297 92.367 34.4772 92.1525 34.8174C91.9078 35.3433 91.7242 35.7609 91.6022 36.0702C91.5097 36.3486 91.4638 36.6734 91.4638 37.0446V38.8542C91.4638 39.6585 91.6933 40.2772 92.1525 40.7102C92.6424 41.1124 93.4689 41.3134 94.6318 41.3134H99.7747C100.907 41.3134 101.474 42.0404 101.474 43.4942C101.474 44.1129 101.336 44.6388 101.06 45.0718C100.784 45.474 100.356 45.675 99.7747 45.675H93.7601ZM134.179 22.1039H125.318C124.063 22.1039 123.237 22.475 122.839 23.2175C122.411 23.8671 122.196 24.6249 122.196 25.4911V38.8542C122.196 39.6585 122.441 40.2772 122.931 40.7102C123.421 41.1124 124.231 41.3134 125.364 41.3134H130.093C131.195 41.3134 131.746 42.0404 131.746 43.4942C131.746 44.1129 131.608 44.6388 131.333 45.0718C131.088 45.474 130.675 45.675 130.093 45.675H124.538C122.609 45.675 120.895 45.1801 119.395 44.1902C117.895 43.2622 117.146 41.499 117.146 38.9006V25.0735C117.146 23.8052 117.344 22.7071 117.743 21.7791C118.141 20.8511 118.768 20.0932 119.625 19.5055C121.247 18.33 122.87 17.7423 124.492 17.7423H134.179V10.7823C134.179 9.29745 135.021 8.55505 136.705 8.55505C138.388 8.55505 139.23 9.29745 139.23 10.7823V43.7262C139.23 45.211 138.388 45.9534 136.705 45.9534C136.062 45.9534 135.48 45.8452 134.96 45.6286C134.44 45.3812 134.179 44.8553 134.179 44.051V22.1039ZM152.649 38.251C152.649 38.9934 152.879 39.6894 153.338 40.339C153.828 40.9886 154.639 41.3134 155.771 41.3134H161.511C162.643 41.3134 163.439 41.035 163.898 40.4782C164.388 39.8905 164.633 39.2254 164.633 38.483V37.9726C164.633 36.5188 165.474 35.7918 167.158 35.7918C168.842 35.7918 169.683 36.5188 169.683 37.9726V38.5294C169.683 39.8286 169.469 40.8958 169.04 41.731C168.642 42.5662 168.03 43.2932 167.204 43.9118C165.582 45.0873 163.959 45.675 162.337 45.675H154.624C153.002 45.675 151.425 45.0873 149.895 43.9118C149.16 43.2932 148.594 42.5198 148.196 41.5918C147.798 40.6329 147.599 39.5348 147.599 38.2974V25.0735C147.599 22.5679 148.364 20.7119 149.895 19.5055C150.66 18.9487 151.441 18.5156 152.236 18.2063C153.063 17.866 153.858 17.6959 154.624 17.6959H162.337C163.072 17.6959 163.883 17.8505 164.77 18.1599C165.658 18.4383 166.484 18.8249 167.25 19.3199C167.984 19.8457 168.566 20.5727 168.994 21.5007C169.454 22.4286 169.683 23.5268 169.683 24.7951V31.059C169.683 31.7705 169.469 32.4046 169.04 32.9614C168.642 33.5182 167.893 33.7966 166.791 33.7966H156.873C155.771 33.7966 155.19 33.0697 155.129 31.6159C155.129 30.162 155.71 29.435 156.873 29.435H164.679L164.633 25.1199C164.633 24.3465 164.388 23.6505 163.898 23.0318C163.439 22.3822 162.643 22.0575 161.511 22.0575H155.771C154.639 22.0575 153.828 22.3822 153.338 23.0318C152.879 23.6505 152.649 24.3465 152.649 25.1199V38.251ZM189.26 31.4767L196.973 42.4734C197.188 42.7828 197.295 43.123 197.295 43.4942C197.295 44.1438 196.836 44.7934 195.917 45.443C195.336 45.8452 194.785 46.0462 194.265 46.0462C193.959 46.0462 193.638 45.938 193.3 45.7214C192.995 45.5049 192.703 45.2265 192.428 44.8862L186.138 35.931C185.679 36.5806 185.174 37.2921 184.623 38.0654C184.103 38.8388 183.567 39.6276 183.016 40.4318C182.465 41.2052 181.914 41.9785 181.363 42.7518C180.843 43.5252 180.353 44.2366 179.894 44.8862C179.313 45.6596 178.685 46.0462 178.011 46.0462C177.43 46.0462 176.879 45.8452 176.358 45.443C175.93 45.1337 175.594 44.8398 175.348 44.5614C175.135 44.2521 175.027 43.9118 175.027 43.5406C175.027 43.1694 175.15 42.8137 175.394 42.4734L183.016 31.4767C181.884 29.8372 180.69 28.1204 179.435 26.3263C178.18 24.5321 176.986 22.7998 175.853 21.1294C175.731 20.9129 175.609 20.6809 175.486 20.4335C175.394 20.1551 175.348 19.9385 175.348 19.7839C175.348 19.1343 175.777 18.5311 176.634 17.9743H176.588C176.894 17.8196 177.17 17.6959 177.414 17.6031C177.69 17.4793 177.95 17.4175 178.195 17.4175C179.021 17.4175 179.741 17.866 180.353 18.7631L186.138 27.0686L191.923 18.7631C192.566 17.866 193.285 17.4175 194.081 17.4175C194.356 17.4175 194.617 17.4793 194.861 17.6031C195.107 17.6959 195.382 17.8196 195.688 17.9743H195.642C196.53 18.5311 196.973 19.1343 196.973 19.7839C196.973 20.1551 196.79 20.6036 196.422 21.1294L189.26 31.4767Z" fill="white"/>
<path d="M9.40578 43.7262C9.40578 45.211 8.5028 45.9534 6.69691 45.9534C4.891 45.9534 3.98804 45.211 3.98804 43.7262V11.6174C3.98804 10.9059 4.18699 10.2718 4.58491 9.71497C4.98282 9.12722 5.74803 8.83337 6.88056 8.83337H22.491C23.5929 8.83337 24.1745 9.60673 24.2357 11.1534C24.2969 12.731 23.7154 13.5198 22.491 13.5198H9.40578V43.7262ZM21.1595 26.5118C21.1595 27.0376 21.0524 27.548 20.8381 28.043C20.6545 28.507 20.379 28.9091 20.0117 29.2494C19.675 29.5896 19.2771 29.868 18.818 30.0846C18.3588 30.2702 17.8538 30.363 17.3028 30.363C16.2621 30.363 15.3745 29.9918 14.6399 29.2494C13.9053 28.507 13.538 27.5944 13.538 26.5118C13.538 25.4291 13.9053 24.5166 14.6399 23.7742C15.3745 23.0318 16.2621 22.6606 17.3028 22.6606C17.8538 22.6606 18.3588 22.7688 18.818 22.9854C19.2771 23.171 19.675 23.4494 20.0117 23.8206C20.379 24.1608 20.6545 24.563 20.8381 25.027C21.0524 25.491 21.1595 25.9859 21.1595 26.5118Z" fill="white"/>
</svg>
